<svg xmlns="http://www.w3.org/2000/svg" xmlns:xlink="http://www.w3.org/1999/xlink" width="500" zoomAndPan="magnify" viewBox="0 0 375 374.999991" height="500" preserveAspectRatio="xMidYMid meet" version="1.0"><defs><g/><clipPath id="e2aa4b2bba"><path d="M 54.027344 65 L 336 65 L 336 328 L 54.027344 328 Z M 54.027344 65 " clip-rule="nonzero"/></clipPath><clipPath id="958f369313"><path d="M 235 78 L 310 78 L 310 173 L 235 173 Z M 235 78 " clip-rule="nonzero"/></clipPath><clipPath id="403c5155fc"><path d="M 305.511719 75.867188 L 312.960938 171.578125 L 240.429688 177.222656 L 232.984375 81.511719 Z M 305.511719 75.867188 " clip-rule="nonzero"/></clipPath><clipPath id="9252cc5616"><path d="M 305.511719 75.867188 L 312.960938 171.578125 L 240.429688 177.222656 L 232.984375 81.511719 Z M 305.511719 75.867188 " clip-rule="nonzero"/></clipPath><clipPath id="5d5172c40b"><path d="M 219.726562 179.835938 L 258.25 179.835938 L 258.25 212.640625 L 219.726562 212.640625 Z M 219.726562 179.835938 " clip-rule="nonzero"/></clipPath><clipPath id="507b12a4bb"><path d="M 205.265625 178 L 226 178 L 226 199 L 205.265625 199 Z M 205.265625 178 " clip-rule="nonzero"/></clipPath><clipPath id="18f9c6cc0c"><path d="M 234 162.394531 L 244 162.394531 L 244 173 L 234 173 Z M 234 162.394531 " clip-rule="nonzero"/></clipPath></defs><g clip-path="url(#e2aa4b2bba)"><path fill="#ff7f30" d="M 332.351562 229.0625 L 326.980469 245.980469 C 312.746094 279.246094 288.75 302.828125 254.992188 316.734375 C 221.042969 330.578125 184.90625 330.832031 146.582031 317.503906 C 110.421875 303.042969 84.296875 279.804688 68.203125 247.792969 C 63.066406 237.457031 59.382812 226.65625 57.152344 215.390625 L 55.027344 198.324219 C 54.378906 186.78125 55.4375 175.144531 58.203125 163.425781 C 67.789062 127.71875 88.332031 101.019531 119.832031 83.324219 C 151.332031 65.632812 186.605469 60.980469 225.65625 69.371094 C 264.269531 79.574219 293.613281 99.699219 313.683594 129.738281 C 333.753906 159.777344 339.980469 192.886719 332.351562 229.0625 " fill-opacity="1" fill-rule="nonzero"/></g><g clip-path="url(#958f369313)"><g clip-path="url(#403c5155fc)"><g clip-path="url(#9252cc5616)"><path fill="#1e1e1e" d="M 235.519531 96.96875 C 235.976562 98.574219 236.921875 101.78125 237.722656 105.042969 C 238.527344 108.304688 239.191406 111.625 239.710938 115 C 240.234375 118.378906 240.621094 121.816406 240.804688 124.410156 C 240.992188 127.003906 241.078125 128.71875 241.128906 130.390625 C 241.179688 132.058594 241.203125 133.683594 241.191406 135.257812 C 241.183594 136.832031 241.148438 138.359375 241.082031 140.222656 C 241.019531 142.085938 240.910156 144.324219 240.765625 146.636719 C 240.621094 148.949219 240.4375 151.332031 240.207031 153.789062 C 239.976562 156.25 239.699219 158.777344 239.515625 160.734375 C 239.335938 162.6875 239.324219 163.558594 239.347656 164.355469 C 239.375 165.152344 239.457031 165.941406 239.773438 167.035156 C 240.089844 168.128906 241.707031 170.167969 245.839844 170.421875 C 249.972656 170.675781 254.003906 170.289062 258.910156 170.292969 C 263.820312 170.292969 269.585938 170.597656 276.195312 171.253906 C 282.808594 171.910156 290.25 172.953125 296.800781 172.285156 C 303.355469 171.617188 303.453125 168.171875 302.753906 167.152344 C 302.054688 166.136719 301.53125 165.695312 301 165.324219 C 300.46875 164.953125 299.867188 164.578125 298.90625 164.011719 C 297.945312 163.445312 296.207031 162.4375 293.839844 161.082031 C 291.46875 159.722656 288.46875 158.003906 284.816406 155.9375 C 281.164062 153.871094 276.886719 151.421875 274.378906 149.996094 C 271.871094 148.570312 271.660156 148.433594 271.59375 148.390625 C 271.523438 148.347656 271.601562 148.460938 271.746094 148.824219 C 271.890625 149.191406 272.140625 149.816406 272.121094 150.035156 C 272.101562 150.253906 272.160156 150.179688 272.464844 149.800781 C 272.769531 149.421875 273.328125 148.84375 274.136719 148.121094 C 274.945312 147.398438 275.988281 146.558594 276.984375 145.8125 C 277.980469 145.066406 279.332031 144.160156 281.566406 142.730469 C 283.800781 141.300781 286.902344 139.398438 290.851562 137.019531 C 294.800781 134.640625 299.59375 131.785156 302.582031 130 C 305.570312 128.214844 306.101562 127.832031 306.621094 127.382812 C 307.140625 126.933594 307.660156 126.359375 308.15625 125.539062 C 308.648438 124.71875 309.007812 123.535156 309.035156 122.507812 C 309.066406 121.476562 308.359375 119.484375 307.371094 118.464844 C 306.386719 117.441406 305.542969 116.964844 304.789062 116.660156 C 304.035156 116.359375 303.292969 116.132812 295.15625 114.421875 C 287.019531 112.710938 271.597656 109.910156 271.085938 109.800781 C 270.570312 109.695312 270.140625 109.589844 269.863281 109.511719 C 269.585938 109.433594 269.5 109.40625 269.6875 109.519531 C 269.875 109.632812 272.125 113.957031 272.257812 113.816406 C 272.386719 113.675781 273.296875 111.761719 274.960938 108.761719 C 276.621094 105.761719 278.992188 101.765625 282.046875 96.820312 C 285.105469 91.871094 288.839844 85.941406 289.1875 85.257812 C 289.53125 84.578125 289.769531 83.839844 289.839844 82.832031 C 289.910156 81.828125 289.59375 80.570312 288.785156 79.503906 C 287.976562 78.441406 284.433594 77.507812 281.464844 78.378906 C 278.492188 79.253906 275.003906 80.667969 270.917969 82.609375 C 266.832031 84.550781 262.128906 87.03125 258.402344 89.332031 C 254.671875 91.636719 257 96.3125 259.59375 95.023438 C 259.59375 95.023438 265.113281 93.179688 269.625 91.351562 C 274.136719 89.523438 277.886719 88.179688 280.832031 87.34375 C 283.78125 86.507812 285.867188 86.160156 283.894531 85.433594 C 281.917969 84.707031 281.386719 83.769531 281.257812 82.925781 C 281.132812 82.078125 281.214844 81.574219 281.28125 81.359375 C 281.347656 81.144531 281.464844 80.9375 277.539062 86.3125 C 273.609375 91.6875 270.425781 96.242188 267.972656 99.972656 C 265.519531 103.707031 263.777344 106.65625 262.664062 109.058594 C 261.550781 111.457031 261.148438 114.148438 262.84375 116.6875 C 264.539062 119.222656 265.238281 119.550781 265.898438 119.796875 C 266.558594 120.039062 267.234375 120.242188 267.960938 120.425781 C 268.691406 120.613281 269.585938 120.808594 285.042969 123.460938 C 300.5 126.113281 300.761719 126.15625 300.964844 126.199219 C 301.167969 126.242188 301.125 126.207031 300.726562 125.910156 C 300.328125 125.613281 299.585938 124.664062 299.269531 123.398438 C 298.953125 122.128906 299.023438 121.691406 299.28125 121.03125 C 299.539062 120.371094 299.753906 120.078125 299.835938 120 C 299.917969 119.925781 299.867188 119.988281 299.726562 120.109375 C 299.585938 120.234375 294.457031 123.769531 290.113281 126.777344 C 285.769531 129.785156 282.226562 132.265625 279.472656 134.210938 C 276.71875 136.15625 274.746094 137.585938 273.53125 138.535156 C 272.320312 139.480469 271.039062 140.5625 269.921875 141.589844 C 268.804688 142.613281 267.863281 143.585938 267.085938 144.542969 C 266.304688 145.496094 265.679688 146.496094 265.289062 147.546875 C 264.894531 148.597656 264.761719 149.578125 265.066406 150.605469 C 265.375 151.636719 265.808594 152.414062 266.308594 152.996094 C 266.808594 153.574219 267.347656 154.039062 267.929688 154.445312 C 268.507812 154.847656 273.09375 157.746094 277.042969 160.25 C 280.992188 162.753906 284.300781 164.882812 286.984375 166.613281 C 289.671875 168.34375 291.710938 169.699219 293.125 170.65625 C 294.535156 171.613281 295.078125 171.984375 295.425781 172.242188 C 295.773438 172.5 295.929688 172.636719 295.789062 172.492188 C 295.644531 172.347656 295.03125 171.25 297.519531 168.359375 C 300.003906 165.472656 292.011719 163.589844 284.644531 162.148438 C 277.277344 160.710938 270.605469 159.78125 264.621094 159.40625 C 258.636719 159.03125 253.328125 159.183594 248.835938 159.820312 C 244.34375 160.453125 248.597656 161.550781 249.453125 162.832031 C 250.304688 164.109375 250.347656 164.335938 250.328125 164.132812 C 250.308594 163.925781 250.285156 163.445312 250.277344 162.882812 C 250.265625 162.320312 250.449219 159.75 250.597656 157.121094 C 250.746094 154.496094 250.847656 151.9375 250.902344 149.449219 C 250.957031 146.960938 250.957031 144.542969 250.90625 142.207031 C 250.851562 139.867188 250.792969 138.265625 250.695312 136.609375 C 250.597656 134.953125 250.464844 133.257812 250.300781 131.523438 C 250.136719 129.789062 249.945312 128.019531 249.71875 126.175781 C 249.492188 124.332031 248.878906 120.671875 248.128906 117.066406 C 247.375 113.464844 246.464844 109.949219 245.410156 106.511719 C 244.355469 103.078125 243.140625 99.730469 242.410156 98.089844 C 241.066406 94.847656 236.132812 98.566406 235.519531 96.96875 Z M 235.519531 96.96875 " fill-opacity="1" fill-rule="nonzero"/></g></g></g><path fill="#000000" d="M 239.03125 171.566406 C 248.582031 171.566406 256.324219 174.726562 256.324219 178.628906 C 256.324219 182.527344 248.582031 185.6875 239.03125 185.6875 C 229.476562 185.6875 221.734375 182.527344 221.734375 178.628906 C 221.734375 174.726562 229.476562 171.566406 239.03125 171.566406 " fill-opacity="1" fill-rule="evenodd"/><g clip-path="url(#5d5172c40b)"><path fill="#000000" d="M 249.234375 212.640625 C 249.953125 211.183594 250.804688 209.257812 251.820312 207.078125 C 252.90625 204.753906 254.167969 202.132812 255.75 199.53125 C 257.390625 196.828125 258.152344 194.09375 258.238281 191.695312 C 258.328125 189.285156 257.753906 187.183594 256.308594 185.546875 C 254.652344 183.671875 252.210938 182.300781 249.257812 181.335938 C 247.785156 180.855469 246.183594 180.488281 244.464844 180.238281 C 242.753906 179.988281 240.925781 179.851562 239.011719 179.851562 C 237.09375 179.851562 235.261719 179.988281 233.542969 180.238281 C 231.824219 180.488281 230.222656 180.855469 228.742188 181.335938 C 225.777344 182.300781 223.34375 183.671875 221.691406 185.546875 C 220.25 187.179688 219.679688 189.273438 219.761719 191.691406 C 219.84375 194.089844 220.609375 196.820312 222.257812 199.53125 C 223.84375 202.132812 225.097656 204.753906 226.179688 207.082031 C 227.195312 209.261719 228.054688 211.191406 228.773438 212.640625 L 249.234375 212.640625 " fill-opacity="1" fill-rule="evenodd"/></g><path fill="#000000" d="M 259.578125 173.847656 C 263.472656 173.847656 266.625 177.007812 266.625 180.90625 C 266.625 184.804688 263.472656 187.96875 259.578125 187.96875 C 255.6875 187.96875 252.53125 184.804688 252.53125 180.90625 C 252.53125 177.007812 255.6875 173.847656 259.578125 173.847656 " fill-opacity="1" fill-rule="evenodd"/><path fill="#000000" d="M 218.484375 173.613281 C 214.59375 173.613281 211.4375 176.777344 211.4375 180.675781 C 211.4375 184.574219 214.59375 187.734375 218.484375 187.734375 C 222.375 187.734375 225.53125 184.574219 225.53125 180.675781 C 225.53125 176.777344 222.375 173.613281 218.484375 173.613281 " fill-opacity="1" fill-rule="evenodd"/><path fill="#000000" d="M 232.835938 175.425781 C 236.875 175.425781 240.148438 178.234375 240.148438 181.695312 C 240.148438 185.160156 236.875 187.96875 232.835938 187.96875 C 228.800781 187.96875 225.527344 185.160156 225.527344 181.695312 C 225.527344 178.234375 228.800781 175.425781 232.835938 175.425781 " fill-opacity="1" fill-rule="evenodd"/><path fill="#000000" d="M 245.222656 175.425781 C 241.183594 175.425781 237.910156 178.234375 237.910156 181.695312 C 237.910156 185.160156 241.183594 187.96875 245.222656 187.96875 C 249.257812 187.96875 252.53125 185.160156 252.53125 181.695312 C 252.53125 178.234375 249.257812 175.425781 245.222656 175.425781 " fill-opacity="1" fill-rule="evenodd"/><path fill="#000000" d="M 235.039062 168.957031 C 236.367188 168.957031 237.695312 168.957031 239.027344 168.957031 C 240.355469 168.957031 241.6875 168.957031 243.019531 168.957031 C 243.125 170.242188 243.347656 171.542969 243.980469 172.808594 C 244.628906 174.113281 245.679688 175.375 246.851562 176.660156 C 245.542969 176.988281 244.289062 177.398438 243.054688 177.808594 C 241.691406 178.261719 240.324219 178.722656 239.03125 179.238281 C 237.730469 178.722656 236.363281 178.261719 235 177.808594 C 233.765625 177.398438 232.515625 176.988281 231.210938 176.660156 C 232.378906 175.375 233.429688 174.113281 234.082031 172.808594 C 234.710938 171.542969 234.933594 170.242188 235.039062 168.957031 " fill-opacity="1" fill-rule="evenodd"/><path fill="#000000" d="M 235.039062 168.957031 C 236.367188 168.957031 237.695312 168.957031 239.027344 168.957031 C 240.355469 168.957031 241.6875 168.957031 243.019531 168.957031 C 243.125 170.242188 243.347656 171.542969 243.980469 172.808594 C 244.058594 172.964844 244.140625 173.117188 244.226562 173.273438 C 242.746094 174.136719 240.957031 174.640625 239.03125 174.640625 C 237.101562 174.640625 235.3125 174.136719 233.832031 173.273438 C 233.917969 173.117188 234.003906 172.964844 234.082031 172.808594 C 234.710938 171.542969 234.933594 170.242188 235.039062 168.957031 " fill-opacity="1" fill-rule="evenodd"/><path fill="#dea466" d="M 235.039062 168.957031 C 236.367188 168.957031 237.695312 168.957031 239.027344 168.957031 C 240.355469 168.957031 241.6875 168.957031 243.019531 168.957031 C 243.125 170.242188 243.347656 171.542969 243.980469 172.808594 C 244 172.847656 244.019531 172.890625 244.039062 172.929688 C 242.601562 173.722656 240.882812 174.183594 239.03125 174.183594 C 237.179688 174.183594 235.457031 173.722656 234.019531 172.929688 C 234.039062 172.890625 234.058594 172.847656 234.078125 172.808594 C 234.710938 171.542969 234.933594 170.242188 235.039062 168.957031 " fill-opacity="1" fill-rule="evenodd"/><path fill="#000000" d="M 230.585938 176.253906 C 236.09375 176.253906 240.554688 180.722656 240.554688 186.242188 C 240.554688 191.757812 236.09375 196.230469 230.585938 196.230469 C 225.082031 196.230469 220.617188 191.757812 220.617188 186.242188 C 220.617188 180.722656 225.082031 176.253906 230.585938 176.253906 " fill-opacity="1" fill-rule="evenodd"/><path fill="#000000" d="M 247.472656 176.253906 C 241.964844 176.253906 237.503906 180.722656 237.503906 186.242188 C 237.503906 191.757812 241.964844 196.230469 247.472656 196.230469 C 252.976562 196.230469 257.441406 191.757812 257.441406 186.242188 C 257.441406 180.722656 252.976562 176.253906 247.472656 176.253906 " fill-opacity="1" fill-rule="evenodd"/><path fill="#dea466" d="M 224.363281 192.730469 C 224.8125 193.113281 225.078125 193.539062 224.957031 193.683594 C 224.832031 193.828125 224.371094 193.636719 223.917969 193.253906 C 223.46875 192.871094 223.203125 192.445312 223.324219 192.300781 C 223.449219 192.15625 223.914062 192.347656 224.363281 192.730469 " fill-opacity="1" fill-rule="evenodd"/><path fill="#dea466" d="M 253.691406 192.730469 C 253.242188 193.113281 252.976562 193.539062 253.097656 193.683594 C 253.222656 193.828125 253.683594 193.636719 254.136719 193.253906 C 254.585938 192.871094 254.851562 192.445312 254.726562 192.300781 C 254.605469 192.15625 254.140625 192.347656 253.691406 192.730469 " fill-opacity="1" fill-rule="evenodd"/><path fill="#f0bd88" d="M 254.171875 185.585938 C 253.804688 186.792969 253.632812 188.066406 253.714844 189.34375 C 253.824219 190.941406 254.324219 192.378906 255.085938 193.636719 C 257.117188 196.992188 261.554688 199.382812 263.980469 199.757812 C 266.707031 200.175781 268.054688 199.472656 269.683594 197.617188 C 268.164062 193.792969 263.730469 185.363281 254.171875 185.585938 " fill-opacity="1" fill-rule="evenodd"/><path fill="#000000" d="M 262.871094 178.410156 C 259.335938 177.863281 255.496094 181.277344 254.171875 185.585938 C 263.730469 185.363281 268.164062 193.792969 269.683594 197.617188 C 271.160156 195.929688 271.980469 193.328125 271.773438 190.265625 C 271.382812 184.414062 267.398438 179.109375 262.871094 178.410156 " fill-opacity="1" fill-rule="evenodd"/><path fill="#f0bd88" d="M 265.492188 199.773438 C 259.429688 200.46875 258.023438 192.136719 252.253906 191.328125 C 249.738281 190.972656 248.042969 191.835938 245.984375 192.738281 C 245.992188 192.746094 245.996094 192.75 246.003906 192.757812 C 246.003906 192.757812 245.273438 193.078125 244.175781 193.601562 C 243.105469 194.144531 242.117188 194.683594 241.214844 195.082031 C 238.765625 196.367188 236.015625 197.980469 234.65625 199.363281 C 233.65625 200.382812 232.410156 201.289062 231.011719 202.0625 C 233.148438 201.699219 235.808594 201.324219 238.269531 202.863281 C 244.304688 206.640625 263.105469 208.515625 265.492188 199.773438 " fill-opacity="1" fill-rule="evenodd"/><path fill="#dea466" d="M 265.230469 199.992188 C 262.0625 200.214844 260.175781 198.035156 258.242188 195.808594 C 256.558594 193.863281 254.84375 191.882812 252.226562 191.515625 C 249.949219 191.195312 248.339844 191.90625 246.5 192.722656 L 246.292969 192.8125 L 246.308594 192.832031 L 246.078125 192.933594 C 246.078125 192.933594 245.359375 193.25 244.257812 193.777344 C 243.964844 193.925781 243.675781 194.074219 243.394531 194.21875 C 242.652344 194.605469 241.953125 194.96875 241.292969 195.257812 C 240.078125 195.894531 238.785156 196.613281 237.628906 197.347656 C 236.476562 198.078125 235.460938 198.816406 234.792969 199.496094 C 234.292969 200.003906 233.734375 200.484375 233.125 200.9375 C 232.761719 201.207031 232.378906 201.464844 231.980469 201.714844 C 232.785156 201.601562 233.644531 201.519531 234.527344 201.558594 C 235.796875 201.613281 237.109375 201.910156 238.371094 202.699219 C 239.527344 203.425781 241.160156 204.078125 243.0625 204.597656 C 246.683594 205.589844 251.257812 206.097656 255.339844 205.691406 C 259.394531 205.289062 262.957031 203.984375 264.59375 201.359375 C 264.859375 200.9375 265.070312 200.480469 265.230469 199.992188 Z M 258.53125 195.554688 C 260.453125 197.773438 262.332031 199.941406 265.46875 199.582031 L 265.75 199.550781 L 265.675781 199.824219 C 265.503906 200.457031 265.25 201.035156 264.921875 201.5625 C 263.210938 204.304688 259.542969 205.660156 255.378906 206.074219 C 251.246094 206.484375 246.621094 205.972656 242.960938 204.96875 C 241.023438 204.4375 239.355469 203.769531 238.167969 203.027344 C 236.96875 202.277344 235.722656 201.992188 234.511719 201.941406 C 233.292969 201.886719 232.101562 202.070312 231.042969 202.253906 L 229.9375 202.441406 L 230.917969 201.894531 C 231.621094 201.507812 232.285156 201.082031 232.898438 200.628906 C 233.488281 200.191406 234.035156 199.722656 234.519531 199.226562 C 235.210938 198.523438 236.25 197.765625 237.425781 197.023438 C 238.589844 196.285156 239.894531 195.558594 241.125 194.914062 L 241.136719 194.90625 C 241.785156 194.621094 242.480469 194.261719 243.21875 193.878906 C 243.5 193.734375 243.789062 193.582031 244.089844 193.433594 L 244.09375 193.429688 C 244.828125 193.078125 245.398438 192.820312 245.695312 192.683594 L 245.679688 192.664062 L 245.910156 192.5625 C 245.980469 192.53125 246.164062 192.449219 246.34375 192.371094 C 248.238281 191.53125 249.890625 190.800781 252.28125 191.136719 C 255.039062 191.523438 256.800781 193.558594 258.53125 195.554688 " fill-opacity="1" fill-rule="evenodd"/><path fill="#f0bd88" d="M 225.140625 185.664062 C 225.699219 187.789062 225.714844 190.140625 224.964844 192.289062 C 224.875 192.542969 224.777344 192.789062 224.671875 193.027344 C 222.382812 198.191406 216.105469 200.113281 211.613281 199.585938 C 210.777344 199.488281 210.023438 199.246094 209.355469 198.882812 C 208.9375 198.65625 208.550781 198.378906 208.203125 198.058594 C 209.59375 194.351562 214.304688 184.59375 225.140625 185.664062 " fill-opacity="1" fill-rule="evenodd"/><g clip-path="url(#507b12a4bb)"><path fill="#000000" d="M 218.847656 178.875 C 221.78125 179.21875 224.210938 182.132812 225.140625 185.664062 C 214.304688 184.59375 209.59375 194.351562 208.203125 198.058594 C 205.996094 196.035156 205.300781 192.292969 206.71875 188.226562 C 208.71875 182.507812 214.148438 178.320312 218.847656 178.875 " fill-opacity="1" fill-rule="evenodd"/></g><path fill="#f0bd88" d="M 209.976562 199.292969 C 216.039062 199.15625 217.445312 190.636719 223.210938 189.039062 C 228.765625 187.5 233.269531 191.09375 236.410156 191.332031 C 241.0625 191.6875 244.417969 189.011719 247.042969 192.273438 C 247.042969 192.273438 237.632812 196.34375 234.855469 199.167969 C 228.28125 205.855469 212.363281 207.710938 209.976562 199.292969 " fill-opacity="1" fill-rule="evenodd"/><path fill="#dea466" d="M 209.972656 199.101562 C 213.121094 199.03125 215 196.601562 216.929688 194.113281 C 218.652344 191.886719 220.414062 189.613281 223.160156 188.855469 C 226.894531 187.820312 230.140625 189.058594 232.832031 190.085938 C 234.179688 190.601562 235.390625 191.0625 236.425781 191.140625 C 238.074219 191.265625 239.5625 191.003906 240.914062 190.765625 C 243.40625 190.332031 245.4375 189.972656 247.195312 192.152344 L 247.351562 192.347656 L 247.121094 192.449219 C 247.09375 192.460938 237.742188 196.503906 234.992188 199.300781 C 232.804688 201.527344 229.597656 203.222656 226.195312 204.191406 C 223.453125 204.972656 220.578125 205.28125 218.007812 205.019531 C 215.417969 204.753906 213.128906 203.90625 211.574219 202.375 C 210.75 201.5625 210.132812 200.554688 209.789062 199.34375 L 209.722656 199.105469 Z M 217.230469 194.347656 C 215.296875 196.84375 213.410156 199.28125 210.230469 199.472656 C 210.5625 200.515625 211.117188 201.386719 211.84375 202.101562 C 213.328125 203.566406 215.539062 204.378906 218.046875 204.636719 C 220.570312 204.894531 223.394531 204.589844 226.09375 203.820312 C 229.433594 202.871094 232.582031 201.210938 234.71875 199.03125 C 237.261719 196.445312 245.257812 192.851562 246.734375 192.199219 C 245.152344 190.414062 243.273438 190.746094 240.980469 191.144531 C 239.605469 191.386719 238.09375 191.652344 236.398438 191.523438 C 235.304688 191.441406 234.074219 190.96875 232.695312 190.445312 C 230.058594 189.4375 226.875 188.222656 223.265625 189.222656 C 220.636719 189.949219 218.917969 192.171875 217.230469 194.347656 " fill-opacity="1" fill-rule="evenodd"/><path fill="#dea466" d="M 243.125 166.078125 C 243.390625 166.078125 243.609375 166.46875 243.609375 166.949219 C 243.609375 167.425781 243.390625 167.816406 243.125 167.816406 C 242.855469 167.816406 242.636719 167.425781 242.636719 166.949219 C 242.636719 166.46875 242.855469 166.078125 243.125 166.078125 " fill-opacity="1" fill-rule="evenodd"/><path fill="#000000" d="M 242.804688 166.964844 C 242.789062 166.664062 242.917969 166.414062 243.09375 166.402344 C 243.269531 166.394531 243.425781 166.628906 243.441406 166.929688 C 243.460938 167.230469 243.332031 167.480469 243.15625 167.492188 C 242.976562 167.5 242.820312 167.265625 242.804688 166.964844 " fill-opacity="1" fill-rule="evenodd"/><path fill="#dea466" d="M 234.9375 166.078125 C 235.203125 166.078125 235.421875 166.46875 235.421875 166.949219 C 235.421875 167.425781 235.203125 167.816406 234.9375 167.816406 C 234.667969 167.816406 234.449219 167.425781 234.449219 166.949219 C 234.449219 166.46875 234.667969 166.078125 234.9375 166.078125 " fill-opacity="1" fill-rule="evenodd"/><g clip-path="url(#18f9c6cc0c)"><path fill="#f0bd88" d="M 236.296875 163.257812 C 237.179688 162.671875 238.128906 162.394531 239.027344 162.394531 C 239.925781 162.394531 240.875 162.671875 241.761719 163.257812 C 242.53125 163.769531 243.09375 165.046875 243.113281 165.746094 C 243.136719 166.597656 243.183594 167.453125 243.253906 168.308594 C 243.324219 169.164062 243.417969 170.019531 243.535156 170.871094 C 243.632812 171.570312 243.085938 172.308594 242.28125 172.429688 C 241.207031 172.589844 240.117188 172.660156 239.027344 172.660156 C 237.941406 172.660156 236.851562 172.589844 235.777344 172.429688 C 234.976562 172.308594 234.429688 171.570312 234.523438 170.871094 C 234.640625 170.019531 234.734375 169.164062 234.804688 168.308594 C 234.875 167.453125 234.921875 166.597656 234.945312 165.746094 C 234.964844 165.046875 235.523438 163.769531 236.296875 163.257812 " fill-opacity="1" fill-rule="evenodd"/></g><path fill="#f0bd88" d="M 243.1875 167.359375 C 243.207031 167.675781 243.226562 167.992188 243.253906 168.308594 C 243.324219 169.164062 243.417969 170.019531 243.535156 170.871094 C 243.632812 171.570312 243.085938 172.308594 242.28125 172.429688 C 241.207031 172.589844 240.117188 172.660156 239.027344 172.660156 C 237.941406 172.660156 236.851562 172.589844 235.777344 172.429688 C 234.976562 172.308594 234.429688 171.570312 234.523438 170.871094 C 234.640625 170.019531 234.734375 169.164062 234.804688 168.308594 C 234.832031 167.992188 234.855469 167.675781 234.875 167.359375 C 235.277344 168.144531 236.039062 169.125 237.242188 168.800781 C 238.417969 168.480469 238.839844 168.355469 238.988281 168.308594 L 238.988281 168.277344 C 238.988281 168.277344 238.980469 168.277344 239.03125 168.292969 C 239.078125 168.277344 239.070312 168.277344 239.070312 168.277344 L 239.070312 168.308594 C 239.21875 168.355469 239.640625 168.480469 240.816406 168.800781 C 242.019531 169.125 242.78125 168.144531 243.1875 167.359375 " fill-opacity="1" fill-rule="evenodd"/><path fill="#f0bd88" d="M 239.03125 170.726562 C 240.425781 170.726562 241.5625 171.320312 241.5625 172.054688 C 241.5625 172.789062 240.425781 173.382812 239.03125 173.382812 C 237.632812 173.382812 236.5 172.789062 236.5 172.054688 C 236.5 171.320312 237.632812 170.726562 239.03125 170.726562 " fill-opacity="1" fill-rule="evenodd"/><path fill="#dea466" d="M 239.03125 168.277344 C 240.59375 168.277344 241.863281 169.523438 241.863281 171.0625 C 241.863281 172.597656 240.59375 173.847656 239.03125 173.847656 C 237.464844 173.847656 236.195312 172.597656 236.195312 171.0625 C 236.195312 169.523438 237.464844 168.277344 239.03125 168.277344 " fill-opacity="1" fill-rule="evenodd"/><path fill="#f0bd88" d="M 239.03125 168.277344 C 240.472656 168.277344 241.644531 169.523438 241.644531 171.0625 C 241.644531 172.597656 240.472656 173.847656 239.03125 173.847656 C 237.585938 173.847656 236.414062 172.597656 236.414062 171.0625 C 236.414062 169.523438 237.585938 168.277344 239.03125 168.277344 " fill-opacity="1" fill-rule="evenodd"/><path fill="#dea466" d="M 239.515625 172.714844 C 239.515625 172.878906 239.296875 173.011719 239.03125 173.011719 C 238.761719 173.011719 238.542969 172.878906 238.542969 172.714844 C 238.542969 172.550781 238.761719 172.417969 239.03125 172.417969 C 239.296875 172.417969 239.515625 172.550781 239.515625 172.714844 " fill-opacity="1" fill-rule="evenodd"/><path fill="#dea466" d="M 239.007812 166.617188 C 239.023438 166.617188 239.035156 166.617188 239.050781 166.617188 C 239.207031 166.617188 239.347656 166.679688 239.453125 166.785156 C 239.554688 166.886719 239.625 167.027344 239.632812 167.183594 C 239.648438 167.460938 239.671875 167.738281 239.707031 168.015625 C 239.746094 168.289062 239.792969 168.566406 239.847656 168.84375 C 239.882812 169 239.820312 169.144531 239.683594 169.246094 C 239.539062 169.347656 239.316406 169.410156 239.0625 169.410156 C 239.039062 169.410156 239.019531 169.410156 238.996094 169.410156 C 238.742188 169.410156 238.519531 169.347656 238.378906 169.246094 C 238.238281 169.144531 238.179688 169 238.210938 168.84375 C 238.265625 168.566406 238.316406 168.289062 238.351562 168.015625 C 238.386719 167.738281 238.410156 167.460938 238.425781 167.183594 C 238.4375 167.027344 238.503906 166.886719 238.605469 166.785156 C 238.710938 166.679688 238.851562 166.617188 239.007812 166.617188 " fill-opacity="1" fill-rule="evenodd"/><path fill="#000000" d="M 238.707031 169.382812 C 238.609375 169.359375 238.523438 169.332031 238.453125 169.292969 C 238.464844 169.191406 238.515625 169.113281 238.578125 169.113281 C 238.652344 169.113281 238.707031 169.214844 238.707031 169.335938 C 238.707031 169.351562 238.707031 169.367188 238.707031 169.382812 " fill-opacity="1" fill-rule="evenodd"/><path fill="#000000" d="M 239.609375 169.289062 C 239.535156 169.332031 239.449219 169.359375 239.351562 169.382812 C 239.351562 169.367188 239.351562 169.351562 239.351562 169.335938 C 239.351562 169.214844 239.410156 169.113281 239.480469 169.113281 C 239.542969 169.113281 239.59375 169.1875 239.609375 169.289062 " fill-opacity="1" fill-rule="evenodd"/><path fill="#000000" d="M 239.03125 170 C 239.628906 170 241.109375 170.003906 240.96875 170.300781 C 240.644531 170.28125 240.320312 170.265625 239.996094 170.253906 C 239.675781 170.242188 239.351562 170.234375 239.03125 170.234375 C 238.707031 170.234375 238.386719 170.242188 238.066406 170.253906 C 237.746094 170.265625 237.421875 170.28125 237.09375 170.300781 C 236.953125 170.003906 238.4375 170 239.03125 170 " fill-opacity="1" fill-rule="evenodd"/><path fill="#ffffff" d="M 237.289062 166.675781 C 237.558594 166.675781 237.773438 166.894531 237.773438 167.164062 C 237.773438 167.433594 237.558594 167.648438 237.289062 167.648438 C 237.019531 167.648438 236.800781 167.433594 236.800781 167.164062 C 236.800781 166.894531 237.019531 166.675781 237.289062 166.675781 " fill-opacity="1" fill-rule="evenodd"/><path fill="#ffffff" d="M 240.769531 166.675781 C 241.039062 166.675781 241.257812 166.894531 241.257812 167.164062 C 241.257812 167.433594 241.039062 167.648438 240.769531 167.648438 C 240.503906 167.648438 240.285156 167.433594 240.285156 167.164062 C 240.285156 166.894531 240.503906 166.675781 240.769531 166.675781 " fill-opacity="1" fill-rule="evenodd"/><path fill="#336699" d="M 240.726562 166.996094 C 240.816406 166.996094 240.890625 167.070312 240.890625 167.164062 C 240.890625 167.253906 240.816406 167.328125 240.726562 167.328125 C 240.632812 167.328125 240.558594 167.253906 240.558594 167.164062 C 240.558594 167.070312 240.632812 166.996094 240.726562 166.996094 " fill-opacity="1" fill-rule="evenodd"/><path fill="#336699" d="M 237.289062 166.996094 C 237.378906 166.996094 237.453125 167.070312 237.453125 167.164062 C 237.453125 167.253906 237.378906 167.328125 237.289062 167.328125 C 237.195312 167.328125 237.121094 167.253906 237.121094 167.164062 C 237.121094 167.070312 237.195312 166.996094 237.289062 166.996094 " fill-opacity="1" fill-rule="evenodd"/><path fill="#dea466" d="M 239.453125 166.386719 C 239.804688 166.371094 240.15625 166.351562 240.507812 166.308594 C 240.859375 166.265625 241.210938 166.203125 241.5625 166.125 C 241.644531 166.105469 241.71875 166.121094 241.773438 166.160156 C 241.828125 166.203125 241.863281 166.269531 241.863281 166.351562 C 241.863281 166.414062 241.863281 166.476562 241.863281 166.539062 C 241.863281 166.621094 241.828125 166.707031 241.773438 166.773438 C 241.71875 166.84375 241.644531 166.898438 241.5625 166.917969 C 241.210938 166.992188 240.859375 167.058594 240.507812 167.101562 C 240.234375 167.132812 239.960938 167.152344 239.691406 167.167969 L 239.691406 167.164062 C 239.679688 166.996094 239.605469 166.839844 239.492188 166.726562 C 239.40625 166.644531 239.300781 166.582031 239.183594 166.558594 C 239.195312 166.527344 239.214844 166.503906 239.238281 166.480469 C 239.292969 166.425781 239.367188 166.390625 239.453125 166.386719 Z M 236.496094 166.125 C 236.847656 166.203125 237.199219 166.265625 237.550781 166.308594 C 237.902344 166.351562 238.253906 166.371094 238.605469 166.386719 C 238.691406 166.390625 238.765625 166.425781 238.820312 166.480469 C 238.84375 166.503906 238.863281 166.527344 238.875 166.558594 C 238.757812 166.582031 238.652344 166.644531 238.566406 166.726562 C 238.453125 166.839844 238.378906 166.996094 238.371094 167.164062 L 238.371094 167.167969 C 238.097656 167.152344 237.824219 167.132812 237.550781 167.101562 C 237.199219 167.058594 236.847656 166.992188 236.496094 166.917969 C 236.414062 166.898438 236.339844 166.84375 236.285156 166.773438 C 236.230469 166.707031 236.195312 166.621094 236.195312 166.539062 C 236.195312 166.476562 236.195312 166.414062 236.195312 166.351562 C 236.195312 166.269531 236.230469 166.203125 236.285156 166.160156 C 236.339844 166.121094 236.414062 166.105469 236.496094 166.125 " fill-opacity="1" fill-rule="evenodd"/><path fill="#2b2a29" d="M 241.609375 166.082031 L 236.175781 166.082031 L 236.175781 166.214844 L 241.609375 166.214844 L 241.609375 166.082031 " fill-opacity="1" fill-rule="evenodd"/><path fill="#2b2a29" d="M 239.804688 167.207031 L 239.804688 167.175781 L 239.800781 167.175781 L 239.800781 167.152344 L 239.796875 167.148438 L 239.796875 167.136719 L 239.792969 167.136719 L 239.792969 167.125 L 239.789062 167.121094 L 239.789062 167.113281 L 239.785156 167.109375 L 239.785156 167.105469 L 239.78125 167.101562 L 239.78125 167.09375 L 239.777344 167.09375 L 239.777344 167.085938 L 239.773438 167.085938 L 239.773438 167.082031 L 239.769531 167.078125 L 239.769531 167.074219 L 239.765625 167.070312 L 239.765625 167.066406 L 239.761719 167.066406 L 239.761719 167.0625 L 239.757812 167.058594 L 239.757812 167.054688 L 239.753906 167.054688 L 239.753906 167.050781 L 239.75 167.046875 L 239.75 167.042969 L 239.746094 167.042969 L 239.746094 167.039062 L 239.742188 167.039062 L 239.742188 167.035156 L 239.738281 167.03125 L 239.734375 167.03125 L 239.734375 167.027344 L 239.730469 167.023438 L 239.726562 167.023438 L 239.726562 167.019531 L 239.722656 167.019531 L 239.722656 167.015625 L 239.71875 167.015625 L 239.71875 167.011719 L 239.714844 167.011719 L 239.714844 167.007812 L 239.710938 167.007812 L 239.710938 167.003906 L 239.707031 167.003906 L 239.707031 167 L 239.703125 167 L 239.699219 166.996094 L 239.695312 166.996094 L 239.695312 166.992188 L 239.691406 166.992188 L 239.691406 166.988281 L 239.6875 166.988281 L 239.6875 166.984375 L 239.679688 166.984375 L 239.679688 166.980469 L 239.675781 166.980469 L 239.675781 166.976562 L 239.671875 166.976562 L 239.667969 166.972656 L 239.664062 166.972656 L 239.660156 166.96875 L 239.65625 166.96875 L 239.652344 166.964844 L 239.648438 166.964844 L 239.644531 166.960938 L 239.640625 166.960938 L 239.636719 166.957031 L 239.632812 166.957031 L 239.625 166.953125 L 239.621094 166.953125 L 239.621094 166.949219 L 239.613281 166.949219 L 239.609375 166.945312 L 239.597656 166.945312 L 239.597656 166.941406 L 239.582031 166.941406 L 239.582031 166.9375 L 239.566406 166.9375 L 239.566406 166.933594 L 239.539062 166.933594 L 239.539062 166.925781 L 239.535156 166.925781 L 239.535156 166.914062 L 239.53125 166.914062 L 239.53125 166.902344 L 239.527344 166.898438 L 239.527344 166.890625 L 239.523438 166.886719 L 239.523438 166.878906 L 239.519531 166.875 L 239.515625 166.867188 L 239.515625 166.863281 L 239.511719 166.859375 L 239.511719 166.851562 L 239.507812 166.847656 L 239.503906 166.839844 L 239.503906 166.835938 L 239.496094 166.824219 L 239.492188 166.820312 L 239.492188 166.8125 L 239.480469 166.800781 L 239.476562 166.792969 L 239.476562 166.789062 L 239.46875 166.777344 L 239.453125 166.761719 L 239.445312 166.75 L 239.433594 166.738281 L 239.429688 166.730469 L 239.398438 166.699219 L 239.390625 166.695312 L 239.371094 166.675781 L 239.355469 166.664062 L 239.34375 166.65625 L 239.339844 166.652344 L 239.335938 166.652344 L 239.332031 166.648438 L 239.324219 166.644531 L 239.316406 166.636719 L 239.308594 166.632812 L 239.304688 166.632812 L 239.300781 166.628906 L 239.289062 166.621094 L 239.285156 166.617188 L 239.277344 166.617188 L 239.269531 166.609375 L 239.257812 166.605469 L 239.25 166.601562 L 239.246094 166.601562 L 239.234375 166.59375 L 239.230469 166.59375 L 239.222656 166.589844 L 239.21875 166.585938 L 239.210938 166.585938 L 239.1875 166.578125 L 239.183594 166.574219 L 239.160156 166.566406 L 239.152344 166.566406 L 239.128906 166.558594 L 239.125 166.554688 L 239.113281 166.554688 L 239.105469 166.550781 L 239.101562 166.550781 L 239.09375 166.546875 L 239.082031 166.546875 L 239.074219 166.542969 L 239.070312 166.542969 L 239.058594 166.539062 L 239.039062 166.539062 L 239.03125 166.535156 L 239.007812 166.535156 L 239 166.53125 L 238.96875 166.53125 L 238.964844 166.527344 L 238.835938 166.527344 L 238.820312 166.53125 L 238.789062 166.53125 L 238.78125 166.535156 L 238.769531 166.535156 L 238.75 166.539062 L 238.730469 166.539062 L 238.726562 166.542969 L 238.714844 166.542969 L 238.707031 166.546875 L 238.695312 166.546875 L 238.6875 166.550781 L 238.683594 166.550781 L 238.675781 166.554688 L 238.664062 166.554688 L 238.660156 166.558594 L 238.652344 166.558594 L 238.648438 166.5625 L 238.628906 166.566406 L 238.621094 166.566406 L 238.609375 166.574219 L 238.605469 166.574219 L 238.589844 166.582031 L 238.578125 166.585938 L 238.570312 166.585938 L 238.566406 166.589844 L 238.558594 166.59375 L 238.554688 166.59375 L 238.546875 166.597656 L 238.542969 166.601562 L 238.539062 166.601562 L 238.515625 166.613281 L 238.511719 166.617188 L 238.503906 166.617188 L 238.496094 166.625 L 238.488281 166.628906 L 238.484375 166.632812 L 238.480469 166.632812 L 238.472656 166.636719 L 238.457031 166.648438 L 238.453125 166.652344 L 238.449219 166.652344 L 238.441406 166.65625 L 238.433594 166.664062 L 238.417969 166.675781 L 238.402344 166.691406 L 238.394531 166.695312 L 238.359375 166.730469 L 238.355469 166.738281 L 238.339844 166.753906 L 238.324219 166.773438 L 238.320312 166.777344 L 238.316406 166.785156 L 238.308594 166.792969 L 238.308594 166.796875 L 238.304688 166.804688 L 238.296875 166.8125 L 238.292969 166.820312 L 238.292969 166.824219 L 238.289062 166.832031 L 238.285156 166.835938 L 238.28125 166.847656 L 238.277344 166.851562 L 238.277344 166.859375 L 238.269531 166.867188 L 238.269531 166.875 L 238.265625 166.878906 L 238.265625 166.886719 L 238.261719 166.890625 L 238.261719 166.898438 L 238.257812 166.902344 L 238.257812 166.910156 L 238.253906 166.914062 L 238.253906 166.921875 L 238.25 166.925781 L 238.25 166.929688 L 238.238281 166.933594 L 238.222656 166.933594 L 238.222656 166.9375 L 238.207031 166.9375 L 238.203125 166.941406 L 238.191406 166.941406 L 238.191406 166.945312 L 238.179688 166.945312 L 238.175781 166.949219 L 238.167969 166.949219 L 238.164062 166.953125 L 238.15625 166.957031 L 238.152344 166.957031 L 238.148438 166.960938 L 238.144531 166.960938 L 238.140625 166.964844 L 238.136719 166.964844 L 238.132812 166.96875 L 238.128906 166.96875 L 238.125 166.972656 L 238.121094 166.972656 L 238.121094 166.976562 L 238.113281 166.976562 L 238.113281 166.980469 L 238.109375 166.980469 L 238.105469 166.984375 L 238.101562 166.984375 L 238.101562 166.988281 L 238.097656 166.988281 L 238.097656 166.992188 L 238.09375 166.992188 L 238.089844 166.996094 L 238.085938 166.996094 L 238.085938 167 L 238.082031 167 L 238.082031 167.003906 L 238.078125 167.003906 L 238.050781 167.03125 L 238.050781 167.035156 L 238.046875 167.035156 L 238.046875 167.039062 L 238.042969 167.039062 L 238.042969 167.042969 L 238.039062 167.042969 L 238.039062 167.046875 L 238.035156 167.050781 L 238.035156 167.054688 L 238.03125 167.054688 L 238.03125 167.058594 L 238.023438 167.066406 L 238.023438 167.070312 L 238.019531 167.070312 L 238.019531 167.078125 L 238.015625 167.078125 L 238.015625 167.085938 L 238.011719 167.085938 L 238.011719 167.089844 L 238.007812 167.097656 L 238.007812 167.101562 L 238.003906 167.101562 L 238.003906 167.109375 L 238 167.113281 L 238 167.121094 L 237.996094 167.121094 L 237.996094 167.128906 L 237.992188 167.136719 L 237.992188 167.144531 L 237.988281 167.148438 L 237.988281 167.167969 L 237.984375 167.167969 L 237.984375 167.242188 L 237.988281 167.242188 L 237.988281 167.261719 L 237.992188 167.261719 L 237.992188 167.269531 L 237.996094 167.28125 L 237.996094 167.289062 L 238 167.292969 L 238 167.296875 L 238.003906 167.300781 L 238.003906 167.308594 L 238.007812 167.308594 L 238.007812 167.316406 L 238.011719 167.320312 L 238.011719 167.324219 L 238.015625 167.328125 L 238.015625 167.332031 L 238.019531 167.332031 L 238.019531 167.335938 L 238.023438 167.339844 L 238.023438 167.34375 L 238.03125 167.351562 L 238.03125 167.355469 L 238.035156 167.355469 L 238.035156 167.363281 L 238.039062 167.363281 L 238.039062 167.367188 L 238.042969 167.367188 L 238.042969 167.371094 L 238.050781 167.378906 L 238.050781 167.382812 L 238.054688 167.382812 L 238.054688 167.386719 L 238.058594 167.386719 L 238.058594 167.390625 L 238.066406 167.394531 L 238.066406 167.398438 L 238.070312 167.398438 L 238.070312 167.402344 L 238.074219 167.402344 L 238.085938 167.414062 L 238.089844 167.414062 L 238.089844 167.417969 L 238.09375 167.417969 L 238.097656 167.421875 L 238.101562 167.421875 L 238.101562 167.425781 L 238.105469 167.425781 L 238.109375 167.429688 L 238.113281 167.429688 L 238.113281 167.433594 L 238.117188 167.433594 L 238.121094 167.4375 L 238.125 167.4375 L 238.125 167.441406 L 238.132812 167.441406 L 238.132812 167.445312 L 238.140625 167.445312 L 238.140625 167.449219 L 238.148438 167.449219 L 238.152344 167.453125 L 238.15625 167.453125 L 238.164062 167.457031 L 238.167969 167.460938 L 238.175781 167.460938 L 238.175781 167.464844 L 238.1875 167.464844 L 238.191406 167.46875 L 238.199219 167.46875 L 238.203125 167.472656 L 238.21875 167.472656 L 238.21875 167.476562 L 238.242188 167.476562 L 238.242188 167.480469 L 238.3125 167.480469 L 238.324219 167.476562 L 238.347656 167.476562 L 238.351562 167.472656 L 238.363281 167.472656 L 238.367188 167.46875 L 238.375 167.46875 L 238.378906 167.464844 L 238.386719 167.464844 L 238.390625 167.460938 L 238.398438 167.460938 L 238.398438 167.457031 L 238.40625 167.457031 L 238.414062 167.453125 L 238.417969 167.453125 L 238.417969 167.449219 L 238.425781 167.449219 L 238.425781 167.445312 L 238.433594 167.445312 L 238.433594 167.441406 L 238.441406 167.441406 L 238.453125 167.429688 L 238.457031 167.429688 L 238.460938 167.425781 L 238.464844 167.425781 L 238.464844 167.421875 L 238.46875 167.421875 L 238.472656 167.417969 L 238.476562 167.417969 L 238.476562 167.414062 L 238.480469 167.414062 L 238.480469 167.410156 L 238.484375 167.410156 L 238.484375 167.40625 L 238.488281 167.402344 L 238.492188 167.402344 L 238.507812 167.386719 L 238.511719 167.386719 L 238.511719 167.382812 L 238.523438 167.371094 L 238.523438 167.367188 L 238.53125 167.359375 L 238.53125 167.355469 L 238.535156 167.355469 L 238.535156 167.351562 L 238.542969 167.34375 L 238.542969 167.339844 L 238.546875 167.335938 L 238.546875 167.332031 L 238.550781 167.332031 L 238.550781 167.324219 L 238.554688 167.324219 L 238.554688 167.316406 L 238.558594 167.316406 L 238.558594 167.308594 L 238.5625 167.308594 L 238.5625 167.300781 L 238.566406 167.296875 L 238.566406 167.289062 L 238.570312 167.289062 L 238.570312 167.28125 L 238.574219 167.273438 L 238.574219 167.261719 L 238.578125 167.261719 L 238.578125 167.238281 L 238.582031 167.238281 L 238.582031 167.171875 L 238.578125 167.171875 L 238.578125 167.152344 L 238.574219 167.148438 L 238.574219 167.136719 L 238.570312 167.132812 L 238.570312 167.125 L 238.566406 167.121094 L 238.566406 167.113281 L 238.5625 167.113281 L 238.5625 167.105469 L 238.558594 167.101562 L 238.558594 167.09375 L 238.554688 167.09375 L 238.554688 167.085938 L 238.550781 167.085938 L 238.550781 167.078125 L 238.546875 167.078125 L 238.546875 167.074219 L 238.539062 167.066406 L 238.539062 167.0625 L 238.535156 167.058594 L 238.535156 167.054688 L 238.53125 167.054688 L 238.53125 167.050781 L 238.519531 167.039062 L 238.519531 167.035156 L 238.511719 167.027344 L 238.507812 167.027344 L 238.507812 167.023438 L 238.496094 167.011719 L 238.492188 167.011719 L 238.492188 167.007812 L 238.488281 167.007812 L 238.488281 167.003906 L 238.484375 167 L 238.480469 167 L 238.472656 166.992188 L 238.46875 166.992188 L 238.46875 166.988281 L 238.464844 166.988281 L 238.464844 166.984375 L 238.460938 166.984375 L 238.457031 166.980469 L 238.453125 166.980469 L 238.453125 166.976562 L 238.449219 166.976562 L 238.445312 166.972656 L 238.441406 166.972656 L 238.4375 166.96875 L 238.433594 166.96875 L 238.429688 166.964844 L 238.425781 166.964844 L 238.425781 166.960938 L 238.417969 166.960938 L 238.417969 166.957031 L 238.410156 166.957031 L 238.40625 166.953125 L 238.398438 166.953125 L 238.398438 166.949219 L 238.402344 166.949219 L 238.402344 166.9375 L 238.40625 166.933594 L 238.40625 166.925781 L 238.410156 166.921875 L 238.410156 166.917969 L 238.414062 166.914062 L 238.414062 166.910156 L 238.417969 166.90625 L 238.417969 166.898438 L 238.425781 166.890625 L 238.425781 166.886719 L 238.429688 166.878906 L 238.433594 166.875 L 238.433594 166.871094 L 238.4375 166.867188 L 238.4375 166.863281 L 238.445312 166.855469 L 238.453125 166.84375 L 238.457031 166.839844 L 238.457031 166.835938 L 238.503906 166.789062 L 238.507812 166.789062 L 238.511719 166.785156 L 238.511719 166.78125 L 238.519531 166.777344 L 238.523438 166.773438 L 238.527344 166.773438 L 238.535156 166.765625 L 238.539062 166.765625 L 238.546875 166.757812 L 238.550781 166.757812 L 238.558594 166.75 L 238.5625 166.75 L 238.566406 166.746094 L 238.570312 166.746094 L 238.578125 166.738281 L 238.582031 166.738281 L 238.585938 166.734375 L 238.589844 166.734375 L 238.59375 166.730469 L 238.597656 166.730469 L 238.601562 166.726562 L 238.605469 166.726562 L 238.609375 166.722656 L 238.613281 166.722656 L 238.617188 166.71875 L 238.628906 166.714844 L 238.632812 166.714844 L 238.636719 166.710938 L 238.640625 166.710938 L 238.644531 166.707031 L 238.648438 166.707031 L 238.660156 166.703125 L 238.664062 166.699219 L 238.671875 166.699219 L 238.679688 166.695312 L 238.683594 166.695312 L 238.695312 166.691406 L 238.703125 166.691406 L 238.707031 166.6875 L 238.714844 166.6875 L 238.722656 166.683594 L 238.730469 166.683594 L 238.742188 166.679688 L 238.75 166.679688 L 238.753906 166.675781 L 238.769531 166.675781 L 238.777344 166.671875 L 238.796875 166.671875 L 238.804688 166.667969 L 238.835938 166.667969 L 238.84375 166.664062 L 238.945312 166.664062 L 238.953125 166.667969 L 238.984375 166.667969 L 239.007812 166.671875 L 239.011719 166.671875 L 239.019531 166.675781 L 239.03125 166.675781 L 239.039062 166.679688 L 239.046875 166.679688 L 239.058594 166.683594 L 239.0625 166.683594 L 239.074219 166.6875 L 239.082031 166.6875 L 239.085938 166.691406 L 239.101562 166.695312 L 239.109375 166.695312 L 239.117188 166.699219 L 239.121094 166.699219 L 239.125 166.703125 L 239.132812 166.703125 L 239.136719 166.707031 L 239.144531 166.707031 L 239.152344 166.710938 L 239.15625 166.714844 L 239.160156 166.714844 L 239.164062 166.71875 L 239.167969 166.71875 L 239.179688 166.722656 L 239.183594 166.726562 L 239.1875 166.726562 L 239.191406 166.730469 L 239.195312 166.730469 L 239.203125 166.734375 L 239.207031 166.738281 L 239.210938 166.738281 L 239.214844 166.742188 L 239.222656 166.746094 L 239.226562 166.75 L 239.230469 166.75 L 239.238281 166.757812 L 239.257812 166.769531 L 239.261719 166.773438 L 239.265625 166.773438 L 239.28125 166.789062 L 239.285156 166.789062 L 239.292969 166.796875 L 239.292969 166.800781 L 239.300781 166.804688 L 239.308594 166.816406 L 239.3125 166.816406 L 239.328125 166.832031 L 239.328125 166.835938 L 239.335938 166.84375 L 239.335938 166.847656 L 239.351562 166.863281 L 239.351562 166.867188 L 239.355469 166.871094 L 239.355469 166.875 L 239.359375 166.878906 L 239.363281 166.886719 L 239.363281 166.890625 L 239.367188 166.894531 L 239.367188 166.898438 L 239.375 166.910156 L 239.375 166.914062 L 239.378906 166.917969 L 239.378906 166.921875 L 239.382812 166.929688 L 239.382812 166.933594 L 239.386719 166.9375 L 239.386719 166.949219 L 239.390625 166.949219 L 239.390625 166.953125 L 239.382812 166.953125 L 239.378906 166.957031 L 239.371094 166.957031 L 239.367188 166.960938 L 239.363281 166.960938 L 239.363281 166.964844 L 239.355469 166.964844 L 239.347656 166.972656 L 239.34375 166.972656 L 239.339844 166.976562 L 239.335938 166.976562 L 239.335938 166.980469 L 239.332031 166.980469 L 239.328125 166.984375 L 239.324219 166.984375 L 239.324219 166.988281 L 239.320312 166.988281 L 239.308594 167 L 239.304688 167 L 239.304688 167.003906 L 239.300781 167.003906 L 239.300781 167.007812 L 239.296875 167.007812 L 239.296875 167.011719 L 239.292969 167.011719 L 239.269531 167.035156 L 239.269531 167.039062 L 239.265625 167.039062 L 239.265625 167.042969 L 239.261719 167.042969 L 239.261719 167.046875 L 239.257812 167.050781 L 239.257812 167.054688 L 239.253906 167.054688 L 239.253906 167.058594 L 239.25 167.0625 L 239.246094 167.070312 L 239.242188 167.074219 L 239.242188 167.078125 L 239.238281 167.078125 L 239.238281 167.082031 L 239.234375 167.085938 L 239.234375 167.089844 L 239.230469 167.09375 L 239.230469 167.101562 L 239.222656 167.109375 L 239.222656 167.117188 L 239.21875 167.121094 L 239.21875 167.132812 L 239.214844 167.136719 L 239.214844 167.148438 L 239.210938 167.148438 L 239.210938 167.167969 L 239.207031 167.167969 L 239.207031 167.242188 L 239.210938 167.246094 L 239.210938 167.261719 L 239.214844 167.265625 L 239.214844 167.277344 L 239.21875 167.277344 L 239.21875 167.289062 L 239.222656 167.292969 L 239.222656 167.300781 L 239.226562 167.300781 L 239.226562 167.308594 L 239.230469 167.3125 L 239.230469 167.316406 L 239.234375 167.320312 L 239.234375 167.324219 L 239.238281 167.328125 L 239.238281 167.332031 L 239.242188 167.332031 L 239.242188 167.339844 L 239.246094 167.339844 L 239.246094 167.34375 L 239.25 167.347656 L 239.25 167.351562 L 239.257812 167.359375 L 239.257812 167.363281 L 239.261719 167.363281 L 239.261719 167.367188 L 239.265625 167.367188 L 239.265625 167.371094 L 239.269531 167.371094 L 239.269531 167.375 L 239.28125 167.386719 L 239.28125 167.390625 L 239.285156 167.390625 L 239.285156 167.394531 L 239.289062 167.394531 L 239.289062 167.398438 L 239.292969 167.398438 L 239.300781 167.40625 L 239.304688 167.40625 L 239.308594 167.410156 L 239.308594 167.414062 L 239.3125 167.414062 L 239.3125 167.417969 L 239.316406 167.417969 L 239.316406 167.421875 L 239.320312 167.421875 L 239.324219 167.425781 L 239.328125 167.425781 L 239.328125 167.429688 L 239.332031 167.429688 L 239.335938 167.433594 L 239.339844 167.433594 L 239.339844 167.4375 L 239.347656 167.4375 L 239.347656 167.441406 L 239.351562 167.441406 L 239.355469 167.445312 L 239.359375 167.445312 L 239.363281 167.449219 L 239.371094 167.449219 L 239.371094 167.453125 L 239.378906 167.453125 L 239.378906 167.457031 L 239.386719 167.457031 L 239.390625 167.460938 L 239.398438 167.460938 L 239.398438 167.464844 L 239.410156 167.464844 L 239.414062 167.46875 L 239.421875 167.46875 L 239.421875 167.472656 L 239.441406 167.472656 L 239.441406 167.476562 L 239.464844 167.476562 L 239.472656 167.480469 L 239.542969 167.480469 L 239.554688 167.476562 L 239.570312 167.476562 L 239.570312 167.472656 L 239.585938 167.472656 L 239.59375 167.46875 L 239.597656 167.46875 L 239.601562 167.464844 L 239.613281 167.464844 L 239.613281 167.460938 L 239.621094 167.460938 L 239.625 167.457031 L 239.632812 167.457031 L 239.632812 167.453125 L 239.640625 167.453125 L 239.640625 167.449219 L 239.648438 167.449219 L 239.648438 167.445312 L 239.65625 167.445312 L 239.65625 167.441406 L 239.660156 167.441406 L 239.664062 167.4375 L 239.667969 167.4375 L 239.671875 167.433594 L 239.675781 167.433594 L 239.675781 167.429688 L 239.679688 167.429688 L 239.683594 167.425781 L 239.6875 167.425781 L 239.6875 167.421875 L 239.691406 167.421875 L 239.691406 167.417969 L 239.695312 167.417969 L 239.699219 167.414062 L 239.707031 167.410156 L 239.707031 167.40625 L 239.710938 167.40625 L 239.714844 167.402344 L 239.714844 167.398438 L 239.71875 167.398438 L 239.734375 167.382812 L 239.734375 167.378906 L 239.738281 167.378906 L 239.738281 167.375 L 239.742188 167.375 L 239.742188 167.371094 L 239.746094 167.371094 L 239.746094 167.367188 L 239.75 167.367188 L 239.75 167.363281 L 239.753906 167.359375 L 239.753906 167.355469 L 239.757812 167.355469 L 239.757812 167.351562 L 239.761719 167.34375 L 239.765625 167.34375 L 239.765625 167.335938 L 239.769531 167.335938 L 239.769531 167.332031 L 239.773438 167.332031 L 239.773438 167.324219 L 239.777344 167.324219 L 239.777344 167.316406 L 239.78125 167.316406 L 239.78125 167.3125 L 239.785156 167.304688 L 239.785156 167.296875 L 239.789062 167.296875 L 239.789062 167.289062 L 239.792969 167.285156 L 239.792969 167.277344 L 239.796875 167.273438 L 239.796875 167.261719 L 239.800781 167.257812 L 239.800781 167.238281 L 239.804688 167.234375 L 239.804688 167.207031 " fill-opacity="1" fill-rule="evenodd"/><path fill="#333333" d="M 238.363281 167.839844 C 237.988281 168.394531 236.882812 169.371094 236.339844 169.378906 C 235.792969 169.386719 235.238281 169.410156 234.839844 168.394531 C 233.429688 164.808594 239.527344 166.105469 238.363281 167.839844 " fill-opacity="1" fill-rule="evenodd"/><path fill="#333333" d="M 239.425781 167.839844 C 239.796875 168.394531 240.90625 169.371094 241.449219 169.378906 C 241.996094 169.386719 242.550781 169.410156 242.949219 168.394531 C 244.359375 164.808594 238.261719 166.105469 239.425781 167.839844 " fill-opacity="1" fill-rule="evenodd"/><path fill="#000000" d="M 238.363281 167.839844 C 237.988281 168.394531 236.882812 169.371094 236.339844 169.378906 C 235.828125 169.386719 235.3125 169.40625 234.917969 168.582031 C 235.953125 167.96875 237.175781 167.585938 238.5 167.523438 C 238.480469 167.625 238.433594 167.734375 238.363281 167.839844 " fill-opacity="1" fill-rule="evenodd"/><path fill="#000000" d="M 239.425781 167.839844 C 239.796875 168.394531 240.90625 169.371094 241.449219 169.378906 C 241.960938 169.386719 242.476562 169.40625 242.871094 168.582031 C 241.835938 167.96875 240.613281 167.585938 239.289062 167.523438 C 239.308594 167.625 239.355469 167.734375 239.425781 167.839844 " fill-opacity="1" fill-rule="evenodd"/><path fill="#2b2a29" d="M 243.199219 167.113281 C 243.179688 167.054688 243.207031 166.988281 243.265625 166.964844 C 243.328125 166.941406 243.394531 166.972656 243.417969 167.03125 C 243.417969 167.035156 244.292969 169.179688 242.28125 170.558594 C 242.28125 170.703125 242.15625 170.878906 241.957031 171 C 241.703125 171.15625 241.417969 171.164062 241.328125 171.011719 C 241.234375 170.859375 241.367188 170.613281 241.621094 170.453125 C 241.816406 170.335938 242.027344 170.300781 242.15625 170.359375 C 244.003906 169.085938 243.203125 167.121094 243.199219 167.113281 " fill-opacity="1" fill-rule="evenodd"/><path fill="#ffcc00" d="M 248.082031 180.398438 L 252.039062 180.398438 C 252.3125 180.398438 252.535156 180.621094 252.535156 180.894531 L 252.535156 181.355469 C 252.535156 181.628906 252.3125 181.851562 252.039062 181.851562 L 248.082031 181.851562 C 247.808594 181.851562 247.585938 181.628906 247.585938 181.355469 L 247.585938 180.894531 C 247.585938 180.621094 247.808594 180.398438 248.082031 180.398438 " fill-opacity="1" fill-rule="evenodd"/><path fill="#2b2a29" d="M 248.554688 180.960938 L 248.355469 180.960938 L 248.355469 180.902344 C 248.355469 180.875 248.351562 180.855469 248.347656 180.847656 C 248.34375 180.839844 248.332031 180.835938 248.320312 180.835938 C 248.308594 180.835938 248.300781 180.839844 248.292969 180.851562 C 248.285156 180.863281 248.28125 180.878906 248.28125 180.898438 C 248.28125 180.925781 248.285156 180.945312 248.292969 180.960938 C 248.300781 180.976562 248.320312 180.992188 248.355469 181.011719 C 248.449219 181.066406 248.507812 181.113281 248.535156 181.152344 C 248.558594 181.1875 248.570312 181.246094 248.570312 181.328125 C 248.570312 181.386719 248.5625 181.429688 248.550781 181.457031 C 248.535156 181.484375 248.511719 181.507812 248.472656 181.527344 C 248.433594 181.546875 248.386719 181.554688 248.335938 181.554688 C 248.277344 181.554688 248.226562 181.542969 248.1875 181.523438 C 248.148438 181.5 248.121094 181.472656 248.109375 181.4375 C 248.09375 181.40625 248.089844 181.359375 248.089844 181.296875 L 248.089844 181.242188 L 248.289062 181.242188 L 248.289062 181.34375 C 248.289062 181.375 248.289062 181.394531 248.296875 181.402344 C 248.300781 181.410156 248.3125 181.414062 248.324219 181.414062 C 248.339844 181.414062 248.351562 181.410156 248.359375 181.398438 C 248.363281 181.386719 248.367188 181.371094 248.367188 181.347656 C 248.367188 181.300781 248.363281 181.269531 248.347656 181.253906 C 248.335938 181.238281 248.300781 181.214844 248.25 181.179688 C 248.195312 181.144531 248.160156 181.117188 248.144531 181.101562 C 248.125 181.085938 248.113281 181.0625 248.101562 181.035156 C 248.089844 181.007812 248.082031 180.972656 248.082031 180.925781 C 248.082031 180.863281 248.089844 180.816406 248.105469 180.789062 C 248.125 180.757812 248.148438 180.738281 248.183594 180.71875 C 248.222656 180.703125 248.265625 180.695312 248.316406 180.695312 C 248.371094 180.695312 248.417969 180.703125 248.457031 180.722656 C 248.496094 180.742188 248.523438 180.761719 248.535156 180.789062 C 248.546875 180.816406 248.554688 180.863281 248.554688 180.929688 Z M 248.640625 180.710938 L 248.996094 180.710938 L 248.996094 180.878906 L 248.851562 180.878906 L 248.851562 181.035156 L 248.988281 181.035156 L 248.988281 181.191406 L 248.851562 181.191406 L 248.851562 181.371094 L 249.011719 181.371094 L 249.011719 181.535156 L 248.640625 181.535156 Z M 249.570312 181.070312 L 249.355469 181.070312 L 249.355469 180.929688 C 249.355469 180.886719 249.355469 180.863281 249.347656 180.851562 C 249.34375 180.839844 249.335938 180.835938 249.320312 180.835938 C 249.300781 180.835938 249.289062 180.839844 249.285156 180.855469 C 249.28125 180.867188 249.277344 180.894531 249.277344 180.9375 L 249.277344 181.316406 C 249.277344 181.359375 249.28125 181.382812 249.285156 181.398438 C 249.289062 181.410156 249.300781 181.414062 249.316406 181.414062 C 249.332031 181.414062 249.34375 181.410156 249.347656 181.398438 C 249.355469 181.382812 249.355469 181.355469 249.355469 181.308594 L 249.355469 181.207031 L 249.570312 181.207031 L 249.570312 181.238281 C 249.570312 181.324219 249.5625 181.382812 249.550781 181.421875 C 249.539062 181.457031 249.515625 181.488281 249.472656 181.515625 C 249.429688 181.542969 249.378906 181.554688 249.320312 181.554688 C 249.257812 181.554688 249.207031 181.542969 249.164062 181.519531 C 249.125 181.496094 249.097656 181.464844 249.085938 181.425781 C 249.070312 181.386719 249.066406 181.324219 249.066406 181.246094 L 249.066406 181.003906 C 249.066406 180.945312 249.066406 180.898438 249.070312 180.871094 C 249.074219 180.839844 249.085938 180.8125 249.109375 180.785156 C 249.128906 180.757812 249.15625 180.734375 249.191406 180.71875 C 249.226562 180.703125 249.269531 180.695312 249.3125 180.695312 C 249.378906 180.695312 249.429688 180.707031 249.46875 180.734375 C 249.511719 180.757812 249.539062 180.785156 249.550781 180.824219 C 249.5625 180.859375 249.570312 180.917969 249.570312 180.992188 Z M 250.132812 180.710938 L 250.132812 181.261719 C 250.132812 181.328125 250.128906 181.371094 250.125 181.394531 C 250.121094 181.421875 250.109375 181.445312 250.089844 181.472656 C 250.070312 181.5 250.042969 181.519531 250.011719 181.535156 C 249.980469 181.546875 249.941406 181.554688 249.894531 181.554688 C 249.847656 181.554688 249.804688 181.546875 249.765625 181.53125 C 249.730469 181.515625 249.699219 181.492188 249.683594 181.464844 C 249.664062 181.441406 249.652344 181.414062 249.648438 181.382812 C 249.644531 181.355469 249.644531 181.292969 249.644531 181.199219 L 249.644531 180.710938 L 249.859375 180.710938 L 249.859375 181.332031 C 249.859375 181.367188 249.859375 181.390625 249.863281 181.398438 C 249.867188 181.410156 249.875 181.414062 249.886719 181.414062 C 249.898438 181.414062 249.910156 181.410156 249.914062 181.398438 C 249.917969 181.386719 249.917969 181.359375 249.917969 181.320312 L 249.917969 180.710938 Z M 250.214844 180.710938 L 250.367188 180.710938 C 250.46875 180.710938 250.535156 180.714844 250.570312 180.722656 C 250.609375 180.730469 250.636719 180.75 250.660156 180.785156 C 250.683594 180.816406 250.695312 180.867188 250.695312 180.9375 C 250.695312 181 250.683594 181.042969 250.667969 181.066406 C 250.652344 181.089844 250.621094 181.101562 250.574219 181.105469 C 250.617188 181.117188 250.644531 181.128906 250.660156 181.148438 C 250.675781 181.167969 250.683594 181.183594 250.6875 181.199219 C 250.691406 181.210938 250.695312 181.253906 250.695312 181.320312 L 250.695312 181.535156 L 250.496094 181.535156 L 250.496094 181.261719 C 250.496094 181.21875 250.492188 181.191406 250.484375 181.179688 C 250.476562 181.171875 250.460938 181.164062 250.429688 181.164062 L 250.429688 181.535156 L 250.214844 181.535156 Z M 250.429688 180.851562 L 250.429688 181.035156 C 250.453125 181.035156 250.472656 181.035156 250.480469 181.027344 C 250.488281 181.019531 250.496094 181 250.496094 180.960938 L 250.496094 180.917969 C 250.496094 180.890625 250.488281 180.875 250.480469 180.867188 C 250.472656 180.855469 250.453125 180.851562 250.429688 180.851562 Z M 250.992188 180.710938 L 250.992188 181.535156 L 250.777344 181.535156 L 250.777344 180.710938 Z M 251.507812 180.710938 L 251.507812 180.878906 L 251.378906 180.878906 L 251.378906 181.535156 L 251.167969 181.535156 L 251.167969 180.878906 L 251.039062 180.878906 L 251.039062 180.710938 Z M 252.035156 180.710938 L 251.878906 181.238281 L 251.878906 181.535156 L 251.683594 181.535156 L 251.683594 181.238281 L 251.53125 180.710938 L 251.730469 180.710938 C 251.757812 180.875 251.777344 180.980469 251.78125 181.039062 C 251.792969 180.949219 251.8125 180.839844 251.839844 180.710938 L 252.035156 180.710938 " fill-opacity="1" fill-rule="evenodd"/><g fill="#1e1e1e" fill-opacity="1"><g transform="translate(67.879994, 178.877218)"><g><path d="M 61.890625 -53.25 L 67.53125 -41.140625 L 66.734375 -6.921875 L 59.46875 -0.46875 L 6.6875 0 L 2.3125 -9.109375 L 4.5 -31.46875 L 24.3125 -31.34375 L 25.9375 -21.09375 L 43.5625 -21.4375 L 44.140625 -35.953125 L 8.53125 -39.984375 L 3.34375 -45.875 L 3.921875 -84.484375 L 8.40625 -89.890625 L 50.703125 -92.078125 L 65.578125 -87.828125 L 66.609375 -66.03125 L 62.34375 -62.34375 L 46.21875 -61.546875 L 43.328125 -70.875 L 28 -69.609375 L 26.734375 -56.359375 Z M 61.890625 -53.25 "/></g></g></g><g fill="#1e1e1e" fill-opacity="1"><g transform="translate(79.001551, 279.664491)"><g><path d="M 33.921875 -46.375 L 63.4375 -46.15625 L 63.875 -8.59375 L 59.8125 -0.765625 L 10.140625 -0.109375 L 2.75 -4.40625 L 2.203125 -82.171875 L 5.734375 -87.34375 L 57.71875 -88.328125 L 64.4375 -82.828125 L 62.890625 -58.046875 L 42.296875 -58.046875 L 40.75 -69.71875 L 25.328125 -68.953125 L 26 -18.9375 L 40.96875 -17.953125 L 41.40625 -28.421875 L 33.921875 -29.1875 Z M 33.921875 -46.375 "/></g></g></g><g fill="#1e1e1e" fill-opacity="1"><g transform="translate(135.025776, 176.932099)"><g><path d="M 40.34375 -48.71875 L 41.375 -0.140625 L 27.078125 0.140625 L 26.65625 -16.96875 L 15.734375 -16.28125 L 14.640625 -0.203125 L 1.375 0.0625 L 3.5 -50.375 L 6.1875 -53.59375 L 36.140625 -54.90625 Z M 26.59375 -27.421875 L 26.25 -41.09375 L 17.171875 -40.34375 L 16.5 -28.109375 Z M 26.59375 -27.421875 "/></g></g></g><g fill="#1e1e1e" fill-opacity="1"><g transform="translate(211.382203, 260.441949)"><g><path d="M 38.96875 -47.078125 L 39.96875 -0.125 L 26.15625 0.125 L 25.765625 -16.40625 L 15.203125 -15.734375 L 14.140625 -0.203125 L 1.328125 0.0625 L 3.390625 -48.671875 L 5.96875 -51.78125 L 34.921875 -53.046875 Z M 25.6875 -26.484375 L 25.359375 -39.703125 L 16.59375 -38.96875 L 15.9375 -27.15625 Z M 25.6875 -26.484375 "/></g></g></g><g fill="#1e1e1e" fill-opacity="1"><g transform="translate(185.47158, 175.916433)"><g><path d="M 50.796875 -63.75 L 24.03125 -64.171875 L 24.03125 -53.21875 L 41.09375 -52.265625 L 41.09375 -33.9375 L 23.921875 -34.984375 L 23.703125 -1.046875 L 2.109375 0 L 2.109375 -84.40625 L 51.3125 -82.828125 Z M 50.796875 -63.75 "/></g></g></g><g fill="#1e1e1e" fill-opacity="1"><g transform="translate(144.154039, 279.550248)"><g><path d="M 45.875 -87.875 L 65 -88.421875 L 63.890625 -8.296875 L 59.796875 -0.4375 L 10.828125 -0.109375 L 3.53125 -4.3125 L 2.203125 -88.75 L 21.21875 -88.75 L 25.421875 -84.890625 L 26.75 -21.109375 L 41.234375 -20.109375 L 41.890625 -83.671875 Z M 45.875 -87.875 "/></g></g></g><g fill="#1e1e1e" fill-opacity="1"><g transform="translate(299.765464, 270.86967)"><g><path d="M 53.78125 -79.828125 L 61.765625 -69.21875 L 59.984375 -10.71875 L 51.78125 -1.046875 L 2.09375 0.109375 L 2.734375 -84.03125 Z M 24.265625 -63.65625 L 25.109375 -17.015625 L 39.703125 -20.28125 L 40.4375 -59.03125 Z M 24.265625 -63.65625 "/></g></g></g><g fill="#1e1e1e" fill-opacity="1"><g transform="translate(253.449744, 269.621082)"><g><path d="M 41.78125 -17.09375 L 37.796875 -16.640625 L 43.15625 -5.671875 L 41.859375 -3.0625 L 30.046875 0 L 21.546875 -15.5625 L 17.78125 -15.40625 L 17.09375 -1.53125 L 1.53125 -0.234375 L 1.53125 -61.484375 L 41.703125 -59.03125 L 44.6875 -56.03125 L 44.765625 -22.234375 Z M 28.59375 -29.96875 L 28.671875 -47.140625 L 18.546875 -48.140625 L 18.171875 -29.203125 Z M 28.59375 -29.96875 "/></g></g></g></svg>